<svg xmlns="http://www.w3.org/2000/svg" xmlns:xlink="http://www.w3.org/1999/xlink" width="1748.887" height="398.4234" viewBox="0 0 1748.887 398.4234"><defs><style>.a{fill:none;}.b{isolation:isolate;}.c{fill:#2a63ed;}.d{clip-path:url(#a);}.e{opacity:0.4;}.f{fill:#c6d5ff;}.g,.m{fill:#0086ff;}.h{fill:#4e77f7;}.h,.j,.k,.m{mix-blend-mode:multiply;}.i,.k,.l{fill:#84a7ff;}.l{opacity:0.8;}</style><clipPath id="a" transform="translate(0 0)"><rect class="a" width="1748.887" height="398.4234"/></clipPath></defs><g class="b"><rect class="c" width="1748.887" height="398.4234"/><g class="d"><g class="e"><path class="f" d="M1409.9957,333.5681l-41.061-1.5448a76.0644,76.0644,0,0,0-152.0212-5.7212l-41.0611-1.5447c2.4291-64.5542,56.9094-115.05,121.477-112.6663a117.1534,117.1534,0,0,1,112.6663,121.477Z" transform="translate(0 0)"/><path class="g" d="M1748.887,0h-28.2476a131.5287,131.5287,0,0,1,1.472,19.6407c0,72.2591-58.7861,131.0452-131.0438,131.0452S1460.0224,91.9,1460.0224,19.6407A131.5287,131.5287,0,0,1,1461.4945,0h-41.4359a173.1175,173.1175,0,0,0-1.1273,19.6407c0,94.9156,77.2207,172.1363,172.1363,172.1363,70.51,0,131.243-42.6208,157.8194-103.4473Z" transform="translate(0 0)"/><path class="h" d="M1438.1322,223.1884A101.1965,101.1965,0,0,1,1581.2456,80.075Z" transform="translate(0 0)"/><path class="i" d="M100.6346,112.1143A114.9134,114.9134,0,0,0,0,171.4822V282.6464A114.9558,114.9558,0,1,0,100.6346,112.1143Z" transform="translate(0 0)"/><g class="j"><polygon class="f" points="40.016 398.423 169.563 365.746 121.711 176.038 81.867 186.087 119.669 335.954 0 366.138 0 398.423 40.016 398.423"/></g><polygon class="g" points="317.341 398.423 310.515 391.598 478.792 223.322 507.847 252.378 361.801 398.423 317.341 398.423"/><rect class="k" x="344.5522" y="235.9645" width="101.7557" height="101.7557" transform="translate(-47.7906 81.4186) rotate(-11.0901)"/><polygon class="f" points="435.138 0 447.73 37.253 222.282 113.457 209.124 74.53 429.62 0 435.138 0"/><path class="k" d="M222.5616,69.3084A91.5278,91.5278,0,1,0,373.8038,0H254.3749A91.35,91.35,0,0,0,222.5616,69.3084ZM314.09,18.8718a50.4367,50.4367,0,1,1-50.4368,50.4366A50.4946,50.4946,0,0,1,314.09,18.8718Z" transform="translate(0 0)"/><polygon class="l" points="1709.249 212.434 1564.778 344.369 1614.141 398.423 1669.789 398.423 1622.83 347.003 1736.96 242.776 1709.249 212.434"/><path class="m" d="M1583.8548,278.9369A66.0286,66.0286,0,0,0,1545.09,398.4234h77.53a66.0287,66.0287,0,0,0-38.7652-119.4865Z" transform="translate(0 0)"/></g></g></g></svg>